<svg xmlns="http://www.w3.org/2000/svg" width="24" height="23.5" viewBox="0 0 24 23.5">
  <g id="Business-Products_Performances_performance-increase-1" data-name="Business-Products / Performances / performance-increase-1" transform="translate(-144 -1384.25)">
    <g id="Group_151">
      <g id="performance-increase-1">
        <path id="Shape_455" d="M145.25,1404.75h3.5a.282.282,0,0,0,.177-.07.256.256,0,0,0,.073-.18v-2.25a.5.5,0,0,0-.5-.5h-3a.5.5,0,0,0-.5.5v2.25a.256.256,0,0,0,.073.18A.282.282,0,0,0,145.25,1404.75Z"/>
        <path id="Shape_456" d="M151.5,1396.75a.5.5,0,0,0-.5.5v7.25a.256.256,0,0,0,.073.18.282.282,0,0,0,.177.07h3.5a.282.282,0,0,0,.177-.07.256.256,0,0,0,.073-.18v-7.25a.5.5,0,0,0-.5-.5Z"/>
        <path id="Shape_457" d="M157.5,1398.75a.5.5,0,0,0-.5.5v5.25a.256.256,0,0,0,.073.18.282.282,0,0,0,.177.07h3.5a.282.282,0,0,0,.177-.07.256.256,0,0,0,.073-.18v-5.25a.5.5,0,0,0-.5-.5Z"/>
        <path id="Shape_458" d="M163.5,1391.75a.5.5,0,0,0-.5.5v12.25a.256.256,0,0,0,.073.18.282.282,0,0,0,.177.07h3.5a.282.282,0,0,0,.177-.07.256.256,0,0,0,.073-.18v-12.25a.5.5,0,0,0-.5-.5Z"/>
        <path id="Shape_459" d="M145,1407.75h22a1,1,0,0,0,0-2H145a1,1,0,0,0,0,2Z"/>
        <path id="Shape_460" d="M164.108,1388.17a.255.255,0,0,1,.182.08l.856.85a.479.479,0,0,0,.354.15.42.42,0,0,0,.191-.04.5.5,0,0,0,.309-.46v-4a.5.5,0,0,0-.5-.5h-4a.5.5,0,0,0-.463.31.491.491,0,0,0,.109.54l1.021,1.03a.242.242,0,0,1,.007.34l-3.214,3.49a.765.765,0,0,1-.786.2l-3.722-1.24a3.236,3.236,0,0,0-3.107.58l-5.145,4.29a1.25,1.25,0,1,0,1.6,1.92l5.145-4.29a.768.768,0,0,1,.716-.13l3.722,1.24a3.259,3.259,0,0,0,3.417-.88l3.134-3.4A.349.349,0,0,1,164.108,1388.17Z"/>
      </g>
    </g>
  </g>
</svg>