<svg id="Layer_1" data-name="Layer 1" xmlns="http://www.w3.org/2000/svg" viewBox="0 0 843.48471 533.66671"><defs><style>.cls-1,.cls-2{fill:#fff;fill-rule:evenodd;}.cls-1{opacity:0.25;}.cls-2{opacity:0.79;}</style></defs><path class="cls-1" d="M418.871,439.63432a22.73771,22.73771,0,1,1-22.7381,22.73738,22.737,22.737,0,0,1,22.7381-22.73738"/><path class="cls-2" d="M431.93737,456.24145c3.35423,0,6.07336,3.60409,6.07336,8.05,0,4.44567-2.71913,8.05-6.07336,8.05-3.35448,0-6.07361-3.60436-6.07361-8.05,0-4.44587,2.71913-8.05,6.07361-8.05"/><path class="cls-2" d="M425.55433,446.75762c1.6773,0,3.03648,1.802,3.03648,4.02511,0,2.22257-1.35918,4.02465-3.03648,4.02465-1.67718,0-3.037-1.80208-3.037-4.02465,0-2.2231,1.35983-4.02511,3.037-4.02511"/><path class="cls-1" d="M162.2961,324.1947a15.18755,15.18755,0,1,1-15.18755,15.18754A15.18745,15.18745,0,0,1,162.2961,324.1947"/><path class="cls-2" d="M171.02415,335.28751c2.24012,0,4.05662,2.40736,4.05662,5.37681,0,2.97011-1.8165,5.37727-4.05662,5.37727-2.24069,0-4.05654-2.40716-4.05654-5.37727,0-2.96945,1.81585-5.37681,4.05654-5.37681"/><path class="cls-2" d="M166.76074,328.95279c1.12009,0,2.02824,1.20374,2.02824,2.68847s-.90815,2.68834-2.02824,2.68834c-1.12042,0-2.02857-1.20361-2.02857-2.68834s.90815-2.68847,2.02857-2.68847"/><path class="cls-1" d="M349.89322,183.36046a15.18765,15.18765,0,1,1-15.18787,15.18774,15.18742,15.18742,0,0,1,15.18787-15.18774"/><path class="cls-2" d="M358.62062,194.45288c2.24044,0,4.05662,2.40775,4.05662,5.37721,0,2.96971-1.81618,5.37746-4.05662,5.37746-2.24069,0-4.05687-2.40775-4.05687-5.37746,0-2.96946,1.81618-5.37721,4.05687-5.37721"/><path class="cls-2" d="M354.357,188.11809c1.12028,0,2.0283,1.20421,2.0283,2.68893,0,1.485-.908,2.68854-2.0283,2.68854-1.12042,0-2.02831-1.20355-2.02831-2.68854,0-1.48472.90789-2.68893,2.02831-2.68893"/><path class="cls-1" d="M144.84785,39.02261a16.15253,16.15253,0,1,1-16.15279,16.15227,16.1526,16.1526,0,0,1,16.15279-16.15227"/><path class="cls-2" d="M154.12968,50.82014c2.38314,0,4.315,2.56039,4.315,5.71885,0,3.15821-1.93185,5.71814-4.315,5.71814-2.38242,0-4.31408-2.55993-4.31408-5.71814,0-3.15846,1.93166-5.71885,4.31408-5.71885"/><path class="cls-2" d="M149.59529,44.08311c1.19166,0,2.15749,1.2802,2.15749,2.85891,0,1.57949-.96583,2.85968-2.15749,2.85968-1.19082,0-2.15685-1.28019-2.15685-2.85968,0-1.57871.966-2.85891,2.15685-2.85891"/><path class="cls-1" d="M64.40183,94.5405A10.45021,10.45021,0,1,1,53.95126,104.991,10.45019,10.45019,0,0,1,64.40183,94.5405"/><path class="cls-2" d="M70.40712,102.17354c1.54156,0,2.7909,1.65607,2.7909,3.69951,0,2.04337-1.24934,3.70009-2.7909,3.70009-1.542,0-2.79156-1.65672-2.79156-3.70009,0-2.04344,1.24954-3.69951,2.79156-3.69951"/><path class="cls-2" d="M67.47319,97.81471c.77111,0,1.39555.82839,1.39555,1.84975,0,1.022-.62444,1.84975-1.39555,1.84975-.77084,0-1.39529-.82774-1.39529-1.84975,0-1.02136.62445-1.84975,1.39529-1.84975"/><path class="cls-1" d="M7.45871,0A7.459,7.459,0,1,1,0,7.45916,7.45924,7.45924,0,0,1,7.45871,0"/><path class="cls-2" d="M11.74518,5.44787c1.1,0,1.99213,1.18251,1.99213,2.64067,0,1.45881-.89217,2.64067-1.99213,2.64067-1.10034,0-1.99271-1.18186-1.99271-2.64067,0-1.45816.89237-2.64067,1.99271-2.64067"/><path class="cls-2" d="M9.65115,2.33722c.55013,0,.996.59053.996,1.32007,0,.72941-.4459,1.32072-.996,1.32072-.55021,0-.9961-.59131-.9961-1.32072,0-.72954.44589-1.32007.9961-1.32007"/><path class="cls-1" d="M31.08489,226.49385a7.45907,7.45907,0,1,1-7.45871,7.45871,7.45852,7.45852,0,0,1,7.45871-7.45871"/><path class="cls-2" d="M35.37136,231.94172c1.10034,0,1.99213,1.18251,1.99213,2.64087,0,1.45874-.89179,2.6406-1.99213,2.6406-1.10054,0-1.99271-1.18186-1.99271-2.6406,0-1.45836.89217-2.64087,1.99271-2.64087"/><path class="cls-2" d="M33.27732,228.83055c.55014,0,.996.59125.996,1.32059,0,.72941-.44589,1.32-.996,1.32-.5504,0-.99609-.5906-.99609-1.32,0-.72934.44569-1.32059.99609-1.32059"/><path class="cls-1" d="M619.12841,364.15813a24.967,24.967,0,1,1-24.96736,24.96723,24.96715,24.96715,0,0,1,24.96736-24.96723"/><path class="cls-2" d="M633.47542,382.39366c3.68327,0,6.669,3.95723,6.669,8.83918s-2.98569,8.839-6.669,8.839c-3.683,0-6.669-3.957-6.669-8.839s2.986-8.83918,6.669-8.83918"/><path class="cls-2" d="M626.4669,371.98018c1.84137,0,3.33435,1.97868,3.33435,4.41969s-1.493,4.4193-3.33435,4.4193c-1.8419,0-3.33449-1.9783-3.33449-4.4193s1.49259-4.41969,3.33449-4.41969"/><path class="cls-1" d="M808.43428,463.56629a35.05021,35.05021,0,1,1-35.05083,35.05024,35.05043,35.05043,0,0,1,35.05083-35.05024"/><path class="cls-2" d="M828.57639,489.16628c5.17027,0,9.36211,5.55582,9.36211,12.40951,0,6.853-4.19184,12.40879-9.36211,12.40879-5.171,0-9.36276-5.55582-9.36276-12.40879,0-6.85369,4.19171-12.40951,9.36276-12.40951"/><path class="cls-2" d="M818.7365,474.547c2.58571,0,4.68157,2.77772,4.68157,6.20456,0,3.42658-2.09586,6.20489-4.68157,6.20489-2.58533,0-4.68106-2.77831-4.68106-6.20489,0-3.42684,2.09573-6.20456,4.68106-6.20456"/><path class="cls-1" d="M229.00611,454.60051a13.566,13.566,0,1,1-13.566,13.566,13.56563,13.56563,0,0,1,13.566-13.566"/><path class="cls-2" d="M236.80218,464.50854c2.001,0,3.62325,2.15022,3.62325,4.803s-1.62223,4.803-3.62325,4.803c-2.00194,0-3.6241-2.15029-3.6241-4.803s1.62216-4.803,3.6241-4.803"/><path class="cls-2" d="M232.99329,458.85016c1.001,0,1.81189,1.07521,1.81189,2.40178,0,1.326-.81092,2.40119-1.81189,2.40119-1.00006,0-1.81163-1.07521-1.81163-2.40119,0-1.32657.81157-2.40178,1.81163-2.40178"/></svg>